<mxfile host="app.diagrams.net" agent="Mozilla/5.0 (Windows NT 10.0; Win64; x64) AppleWebKit/537.36 (KHTML, like Gecko) Chrome/126.0.0.0 Safari/537.36 OPR/112.0.0.0" version="24.7.12">
  <diagram name="Página-1" id="qIUm-NXkEGmmr5HEpveH">
    <mxGraphModel grid="1" page="1" gridSize="10" guides="1" tooltips="1" connect="1" arrows="1" fold="1" pageScale="1" pageWidth="827" pageHeight="1169" math="0" shadow="0">
      <root>
        <mxCell id="0" />
        <mxCell id="1" parent="0" />
        <mxCell id="wsyl__wpP291152e83Fh-2" value="&lt;div&gt;&lt;br&gt;&lt;/div&gt;" style="rounded=0;whiteSpace=wrap;html=1;" vertex="1" parent="1">
          <mxGeometry x="134" y="40" width="560" height="400" as="geometry" />
        </mxCell>
        <mxCell id="wsyl__wpP291152e83Fh-1" value="Usuario Administrador" style="shape=umlActor;verticalLabelPosition=bottom;verticalAlign=top;html=1;outlineConnect=0;" vertex="1" parent="1">
          <mxGeometry x="50" y="225" width="30" height="60" as="geometry" />
        </mxCell>
        <mxCell id="QN4ErK6hGuZmT8oQT1Es-2" style="edgeStyle=orthogonalEdgeStyle;rounded=0;orthogonalLoop=1;jettySize=auto;html=1;entryX=0.5;entryY=0;entryDx=0;entryDy=0;" edge="1" parent="1" source="wsyl__wpP291152e83Fh-5" target="QN4ErK6hGuZmT8oQT1Es-5">
          <mxGeometry relative="1" as="geometry">
            <mxPoint x="230" y="170" as="targetPoint" />
          </mxGeometry>
        </mxCell>
        <mxCell id="wsyl__wpP291152e83Fh-5" value="Revisión de Incidencias" style="ellipse;whiteSpace=wrap;html=1;" vertex="1" parent="1">
          <mxGeometry x="170" y="60" width="120" height="80" as="geometry" />
        </mxCell>
        <mxCell id="syUm3DsR0cCa5fwL_SAr-6" value="Usuario" style="shape=umlActor;verticalLabelPosition=bottom;verticalAlign=top;html=1;outlineConnect=0;" vertex="1" parent="1">
          <mxGeometry x="384" y="500" width="30" height="60" as="geometry" />
        </mxCell>
        <mxCell id="QN4ErK6hGuZmT8oQT1Es-1" value="" style="endArrow=classic;html=1;rounded=0;exitX=0.5;exitY=0.5;exitDx=0;exitDy=0;exitPerimeter=0;entryX=0;entryY=0.5;entryDx=0;entryDy=0;" edge="1" parent="1" source="wsyl__wpP291152e83Fh-1" target="wsyl__wpP291152e83Fh-5">
          <mxGeometry width="50" height="50" relative="1" as="geometry">
            <mxPoint x="390" y="410" as="sourcePoint" />
            <mxPoint x="440" y="360" as="targetPoint" />
          </mxGeometry>
        </mxCell>
        <mxCell id="UrvD1C5S4gz43u2A6O0x-1" style="edgeStyle=orthogonalEdgeStyle;rounded=0;orthogonalLoop=1;jettySize=auto;html=1;entryX=0.5;entryY=0;entryDx=0;entryDy=0;" edge="1" parent="1" source="QN4ErK6hGuZmT8oQT1Es-5" target="QN4ErK6hGuZmT8oQT1Es-8">
          <mxGeometry relative="1" as="geometry" />
        </mxCell>
        <mxCell id="QN4ErK6hGuZmT8oQT1Es-5" value="Evaluación del Comportamiento" style="ellipse;whiteSpace=wrap;html=1;" vertex="1" parent="1">
          <mxGeometry x="170" y="215" width="120" height="80" as="geometry" />
        </mxCell>
        <mxCell id="QN4ErK6hGuZmT8oQT1Es-7" value="" style="endArrow=classic;html=1;rounded=0;exitX=0.5;exitY=0.5;exitDx=0;exitDy=0;exitPerimeter=0;entryX=0;entryY=0.5;entryDx=0;entryDy=0;" edge="1" parent="1" source="wsyl__wpP291152e83Fh-1" target="QN4ErK6hGuZmT8oQT1Es-5">
          <mxGeometry width="50" height="50" relative="1" as="geometry">
            <mxPoint x="390" y="410" as="sourcePoint" />
            <mxPoint x="440" y="360" as="targetPoint" />
          </mxGeometry>
        </mxCell>
        <mxCell id="QN4ErK6hGuZmT8oQT1Es-15" style="edgeStyle=orthogonalEdgeStyle;rounded=0;orthogonalLoop=1;jettySize=auto;html=1;entryX=0;entryY=0.5;entryDx=0;entryDy=0;" edge="1" parent="1" source="QN4ErK6hGuZmT8oQT1Es-8" target="QN4ErK6hGuZmT8oQT1Es-14">
          <mxGeometry relative="1" as="geometry" />
        </mxCell>
        <mxCell id="QN4ErK6hGuZmT8oQT1Es-8" value="Decisión Sobre la Sancion" style="ellipse;whiteSpace=wrap;html=1;" vertex="1" parent="1">
          <mxGeometry x="170" y="330" width="120" height="80" as="geometry" />
        </mxCell>
        <mxCell id="QN4ErK6hGuZmT8oQT1Es-17" style="edgeStyle=orthogonalEdgeStyle;rounded=0;orthogonalLoop=1;jettySize=auto;html=1;entryX=0.5;entryY=1;entryDx=0;entryDy=0;" edge="1" parent="1" source="QN4ErK6hGuZmT8oQT1Es-14" target="QN4ErK6hGuZmT8oQT1Es-16">
          <mxGeometry relative="1" as="geometry" />
        </mxCell>
        <mxCell id="QN4ErK6hGuZmT8oQT1Es-14" value="Aplicación de la Sanción" style="ellipse;whiteSpace=wrap;html=1;" vertex="1" parent="1">
          <mxGeometry x="336" y="330" width="126" height="80" as="geometry" />
        </mxCell>
        <mxCell id="QN4ErK6hGuZmT8oQT1Es-16" value="Documentar y Registrar Sanción" style="ellipse;whiteSpace=wrap;html=1;" vertex="1" parent="1">
          <mxGeometry x="530" y="215" width="120" height="80" as="geometry" />
        </mxCell>
        <mxCell id="UrvD1C5S4gz43u2A6O0x-3" style="edgeStyle=orthogonalEdgeStyle;rounded=0;orthogonalLoop=1;jettySize=auto;html=1;entryX=0.5;entryY=0;entryDx=0;entryDy=0;entryPerimeter=0;" edge="1" parent="1" source="QN4ErK6hGuZmT8oQT1Es-14" target="syUm3DsR0cCa5fwL_SAr-6">
          <mxGeometry relative="1" as="geometry" />
        </mxCell>
        <mxCell id="UrvD1C5S4gz43u2A6O0x-4" value="Enviar Notificación" style="edgeLabel;html=1;align=center;verticalAlign=middle;resizable=0;points=[];" connectable="0" vertex="1" parent="UrvD1C5S4gz43u2A6O0x-3">
          <mxGeometry x="0.2889" y="5" relative="1" as="geometry">
            <mxPoint as="offset" />
          </mxGeometry>
        </mxCell>
        <mxCell id="UrvD1C5S4gz43u2A6O0x-5" value="" style="endArrow=classic;html=1;rounded=0;exitX=0.5;exitY=0.5;exitDx=0;exitDy=0;exitPerimeter=0;entryX=0;entryY=0.5;entryDx=0;entryDy=0;" edge="1" parent="1" source="wsyl__wpP291152e83Fh-1" target="QN4ErK6hGuZmT8oQT1Es-8">
          <mxGeometry width="50" height="50" relative="1" as="geometry">
            <mxPoint x="390" y="410" as="sourcePoint" />
            <mxPoint x="440" y="360" as="targetPoint" />
          </mxGeometry>
        </mxCell>
      </root>
    </mxGraphModel>
  </diagram>
</mxfile>
